# xmcd
#
# Track frame offsets: 
#        150
#        10772
#        34381
#        54488
#        71011
#        98621
#        108916
#        130319
#        163690
#        188035
#        204015
#
# Disc length: 3784 seconds
#
# Revision: 0
# Processed by: cddbd v1.5.2PL0 Copyright (c) Steve Scherf et al.
# Submitted via: ExactAudioCopy v0.95b4
#
DISCID=8a0ec60b
DTITLE=Yonder Mountain String Band - Sunshine Daydream Festival - Terr
DTITLE=a Alta, WV - 8_15_03
DYEAR=2003
DGENRE=Bluegrass
TTITLE0=Intro
TTITLE1=Steam Powered Aereoplane 
TTITLE2=Rag Mama
TTITLE3=Spanish Harlem Incident >
TTITLE4=Little Rabbit >
TTITLE5=Train Bound For Gloryland >
TTITLE6=Free To Run
TTITLE7=Left Me In A Hole
TTITLE8=End Of The Day
TTITLE9=This Lonesome Heart
TTITLE10=On The Run > Too Late Now > On The Run
EXTD=LIVE
EXTT0=
EXTT1=
EXTT2=
EXTT3=
EXTT4=
EXTT5=
EXTT6=
EXTT7=
EXTT8=
EXTT9=
EXTT10=
PLAYORDER=
